<svg width="1324" height="751" viewBox="0 0 1324 751" fill="none" xmlns="http://www.w3.org/2000/svg">
<text fill="white" xml:space="preserve" style="white-space: pre" font-family="Inter" font-size="64" letter-spacing="0em"><tspan x="0" y="61.7727">From the world&#x2019;s best chefs</tspan></text>
<text fill="#8E8E8E" xml:space="preserve" style="white-space: pre" font-family="Inter" font-size="40" letter-spacing="0em"><tspan x="32" y="148.545">Made with love on our home planet&#10;</tspan><tspan x="32" y="196.545">with exotic materials only found here!&#10;</tspan><tspan x="32" y="244.545">Come and taste it now at these </tspan><tspan x="32" y="292.545">coordinates : </tspan></text>
<text fill="url(#paint0_linear_8_78)" xml:space="preserve" style="white-space: pre" font-family="Inter" font-size="40" letter-spacing="0em"><tspan x="288.562" y="292.545">dkawopdk-alwdlawd-23123</tspan></text>
<path d="M1082.06 655.439C1081.47 654.854 1080.53 654.854 1079.94 655.439L1070.39 664.985C1069.81 665.571 1069.81 666.521 1070.39 667.107C1070.98 667.693 1071.93 667.693 1072.51 667.107L1081 658.621L1089.49 667.107C1090.07 667.693 1091.02 667.693 1091.61 667.107C1092.19 666.521 1092.19 665.571 1091.61 664.985L1082.06 655.439ZM724.5 130.5C738.417 130.5 760.428 129.973 783.46 134.009C806.492 138.044 830.361 146.614 848.053 164.675C865.705 182.694 877.395 210.355 875.72 252.972C874.043 295.633 858.972 353.21 823.138 430.872L825.862 432.128C861.778 354.29 877.019 296.304 878.718 253.09C880.418 209.833 868.544 181.306 850.196 162.575C831.889 143.886 807.321 135.143 783.977 131.054C760.634 126.964 738.333 127.5 724.5 127.5L724.5 130.5ZM823.138 430.872C787.136 508.897 785.149 573.739 802.622 624.225C820.088 674.695 856.94 710.634 898.275 730.971C939.582 751.294 985.51 756.105 1021.22 744.125C1039.09 738.13 1054.43 727.917 1065.3 713.312C1076.17 698.7 1082.5 679.783 1082.5 656.5L1079.5 656.5C1079.5 679.218 1073.33 697.488 1062.89 711.521C1052.44 725.56 1037.65 735.449 1020.27 741.281C985.459 752.958 940.356 748.331 899.6 728.279C858.873 708.241 822.631 672.868 805.457 623.244C788.288 573.636 790.114 509.603 825.862 432.128L823.138 430.872Z" fill="#878787"/>
<circle cx="1082.74" cy="413.735" r="175" transform="rotate(31.5857 1082.74 413.735)" fill="url(#paint1_linear_8_78)"/>
<rect x="32" y="364" width="546" height="336" rx="17" fill="#393939"/>
<text fill="white" xml:space="preserve" style="white-space: pre" font-family="Inter" font-size="32" letter-spacing="0em"><tspan x="57" y="410.636">Contacts</tspan></text>
<text fill="white" xml:space="preserve" style="white-space: pre" font-family="Inter" font-size="24" letter-spacing="0em"><tspan x="127" y="485.727">21343-3423523-234234@xen</tspan></text>
<text fill="white" xml:space="preserve" style="white-space: pre" font-family="Inter" font-size="24" letter-spacing="0em"><tspan x="127" y="572.727">xenon@xmail.com</tspan></text>
<text fill="white" xml:space="preserve" style="white-space: pre" font-family="Inter" font-size="24" letter-spacing="0em"><tspan x="127" y="645.227">Next to the famous xen&#x2019;s </tspan><tspan x="127" y="674.227">gameshop</tspan></text>
<mask id="mask0_8_78" style="mask-type:alpha" maskUnits="userSpaceOnUse" x="61" y="453" width="48" height="48">
<rect x="61" y="453" width="48" height="48" fill="#D9D9D9"/>
</mask>
<g mask="url(#mask0_8_78)">
<path d="M100.525 494.75C96.7417 494.75 92.8667 493.825 88.9 491.975C84.9333 490.125 81.2667 487.5 77.9 484.1C74.5 480.733 71.875 477.071 70.025 473.113C68.175 469.154 67.25 465.272 67.25 461.465C67.25 460.838 67.4619 460.312 67.8857 459.887C68.3095 459.462 68.8393 459.25 69.475 459.25H76.3C76.7667 459.25 77.1625 459.412 77.4875 459.738C77.8125 460.063 78.0417 460.475 78.175 460.975L79.5214 467.157C79.5738 467.602 79.5583 468.017 79.475 468.4C79.3917 468.783 79.2212 469.104 78.9635 469.361L74.05 474.35C74.9167 475.817 75.8281 477.178 76.7844 478.433C77.7406 479.688 78.7958 480.877 79.95 482C81.1667 483.267 82.4542 484.422 83.8125 485.466C85.1708 486.51 86.6 487.438 88.1 488.25L92.8772 483.35C93.1924 483 93.5484 482.763 93.9451 482.638C94.3418 482.513 94.7351 482.483 95.125 482.55L100.993 483.822C101.498 483.941 101.917 484.203 102.25 484.61C102.583 485.017 102.75 485.472 102.75 485.975V492.525C102.75 493.161 102.538 493.69 102.114 494.114C101.69 494.538 101.161 494.75 100.525 494.75ZM72.6 471.725L76.65 467.625L75.475 462.125H70.15C70.2 463.508 70.4167 464.979 70.8 466.537C71.1833 468.096 71.7833 469.825 72.6 471.725ZM90.8 489.625C92.1333 490.258 93.6028 490.775 95.2083 491.175C96.8138 491.575 98.3694 491.808 99.875 491.875V486.525L94.775 485.45L90.8 489.625Z" fill="white"/>
</g>
<mask id="mask1_8_78" style="mask-type:alpha" maskUnits="userSpaceOnUse" x="61" y="540" width="48" height="48">
<rect x="61" y="540" width="48" height="48" fill="#D9D9D9"/>
</mask>
<g mask="url(#mask1_8_78)">
<path d="M68.125 579.775C67.3594 579.775 66.6888 579.487 66.1133 578.912C65.5378 578.336 65.25 577.666 65.25 576.9V551.1C65.25 550.334 65.5378 549.664 66.1133 549.088C66.6888 548.513 67.3594 548.225 68.125 548.225H101.875C102.641 548.225 103.311 548.513 103.887 549.088C104.462 549.664 104.75 550.334 104.75 551.1V576.9C104.75 577.666 104.462 578.336 103.887 578.912C103.311 579.487 102.641 579.775 101.875 579.775H68.125ZM101.875 553.725L85.775 564.275C85.6417 564.342 85.5167 564.4 85.4 564.45C85.2833 564.5 85.15 564.525 85 564.525C84.85 564.525 84.7167 564.5 84.6 564.45C84.4833 564.4 84.3667 564.342 84.25 564.275L68.125 553.725V576.9H101.875V553.725ZM85 561.925L101.65 551.1H68.4L85 561.925ZM68.125 553.725V554.05V552.19V552.215V551.1V552.2V552.167V554.054V553.727V576.9V553.725Z" fill="white"/>
</g>
<mask id="mask2_8_78" style="mask-type:alpha" maskUnits="userSpaceOnUse" x="61" y="627" width="48" height="48">
<rect x="61" y="627" width="48" height="48" fill="#D9D9D9"/>
</mask>
<g mask="url(#mask2_8_78)">
<path d="M85 666.975C89.3833 662.958 92.625 659.317 94.725 656.05C96.825 652.783 97.875 649.908 97.875 647.425C97.875 643.532 96.6356 640.342 94.1568 637.855C91.6779 635.368 88.6245 634.125 84.9964 634.125C81.3682 634.125 78.316 635.368 75.8396 637.855C73.3632 640.342 72.125 643.532 72.125 647.425C72.125 649.908 73.2 652.783 75.35 656.05C77.5 659.317 80.7167 662.958 85 666.975ZM84.9875 669.775C84.6458 669.775 84.3066 669.717 83.9699 669.6C83.6331 669.483 83.3348 669.3 83.075 669.05C81.8917 668 80.5042 666.692 78.9125 665.125C77.3208 663.558 75.8083 661.825 74.375 659.925C72.9417 658.025 71.7292 656.008 70.7375 653.875C69.7458 651.742 69.25 649.592 69.25 647.425C69.25 642.496 70.8333 638.567 74 635.64C77.1667 632.713 80.8333 631.25 85 631.25C89.1667 631.25 92.8333 632.713 96 635.64C99.1667 638.567 100.75 642.496 100.75 647.425C100.75 649.592 100.254 651.742 99.2625 653.875C98.2708 656.008 97.0583 658.025 95.625 659.925C94.1917 661.825 92.6792 663.558 91.0875 665.125C89.4958 666.692 88.1083 668 86.925 669.05C86.6652 669.3 86.3627 669.483 86.0177 669.6C85.6726 669.717 85.3292 669.775 84.9875 669.775ZM85.0055 650.425C85.9518 650.425 86.7625 650.09 87.4375 649.419C88.1125 648.749 88.45 647.941 88.45 646.994C88.45 646.048 88.1106 645.238 87.4319 644.562C86.7533 643.887 85.9408 643.55 84.9945 643.55C84.0482 643.55 83.2417 643.889 82.575 644.568C81.9083 645.247 81.575 646.059 81.575 647.006C81.575 647.952 81.9102 648.758 82.5806 649.425C83.2509 650.092 84.0592 650.425 85.0055 650.425Z" fill="white"/>
</g>
<defs>
<linearGradient id="paint0_linear_8_78" x1="300.308" y1="245.2" x2="596.971" y2="264.464" gradientUnits="userSpaceOnUse">
<stop stop-color="#A635FF"/>
<stop offset="1" stop-color="#00FFD1"/>
</linearGradient>
<linearGradient id="paint1_linear_8_78" x1="1082.74" y1="238.735" x2="1071.18" y2="571.997" gradientUnits="userSpaceOnUse">
<stop stop-color="#5AFF88"/>
<stop offset="0.833333" stop-color="#E233FF" stop-opacity="0"/>
</linearGradient>
</defs>
</svg>
